<svg width="794" height="794" viewBox="0 0 794 794" fill="none" xmlns="http://www.w3.org/2000/svg">
<path d="M766.399 181.617V146.536C766.399 144.186 765.384 141.952 763.613 140.406C761.842 138.86 759.494 138.157 757.162 138.474L714.581 144.281V111.991C714.581 109.467 713.411 107.088 711.413 105.546C709.414 104.005 706.812 103.481 704.374 104.122L383.819 188.49C382.364 187.125 380.419 186.272 378.266 186.272H28.3787C12.7303 186.272 0 199.002 0 214.65V661.768C0 677.416 12.7303 690.146 28.3787 690.146H378.246C378.25 690.146 378.251 690.146 378.254 690.146C378.258 690.146 378.263 690.146 378.266 690.146H765.621C781.27 690.146 794 677.416 794 661.768V209.957C794 194.572 781.686 182.035 766.399 181.617ZM750.124 155.859V623.077L509.395 655.91L708.516 603.503C712.091 602.563 714.583 599.33 714.583 595.634V160.707L750.124 155.859ZM698.307 589.36L386.402 671.451V204.638L698.307 122.547V589.36ZM16.275 661.768V214.65C16.275 207.976 21.7043 202.547 28.3787 202.547H335.582V593.04C335.582 597.534 339.226 601.178 343.719 601.178C348.213 601.178 351.857 597.534 351.857 593.04V202.547H370.127V673.871H351.76C351.798 673.554 351.857 673.245 351.857 672.918V645.122C351.857 640.628 348.213 636.984 343.719 636.984C339.226 636.984 335.582 640.628 335.582 645.122V672.918C335.582 673.245 335.64 673.556 335.678 673.871H28.3787C21.7043 673.871 16.275 668.44 16.275 661.768ZM777.725 661.768C777.725 668.442 772.296 673.871 765.621 673.871H498.141L759.362 638.242C763.393 637.692 766.399 634.248 766.399 630.18V197.892C772.711 198.296 777.725 203.546 777.725 209.957V661.768ZM428.101 303.199C426.897 298.87 429.429 294.383 433.76 293.179L646.588 233.975C650.914 232.771 655.404 235.303 656.608 239.634C657.813 243.963 655.28 248.45 650.95 249.655L438.122 308.858C437.393 309.062 436.659 309.159 435.936 309.159C432.374 309.159 429.102 306.799 428.101 303.199ZM622.986 308.217C624.19 312.546 621.658 317.033 617.327 318.237L469.276 359.423C468.546 359.626 467.812 359.724 467.09 359.724C463.527 359.724 460.256 357.366 459.255 353.764C458.051 349.435 460.583 344.948 464.914 343.743L612.966 302.558C617.29 301.354 621.782 303.888 622.986 308.217Z" fill="white"/>
<path d="M48.16 455V386.84H56.8V447.32H94.816V455H48.16ZM102.879 455V404.888H111.327V455H102.879ZM102.879 395.48V384.92H111.327V395.48H102.879ZM150.732 455.96C146.828 455.96 143.276 455 140.076 453.08C136.876 451.16 134.348 448.664 132.492 445.592V455H125.004V384.92H133.452V414.872C135.564 411.608 138.156 408.984 141.228 407C144.3 405.016 147.884 404.024 151.98 404.024C155.436 404.024 158.54 404.76 161.292 406.232C164.044 407.704 166.38 409.656 168.3 412.088C170.284 414.456 171.788 417.24 172.812 420.44C173.9 423.576 174.444 426.808 174.444 430.136C174.444 433.656 173.836 436.984 172.62 440.12C171.404 443.256 169.74 446.008 167.628 448.376C165.516 450.68 162.988 452.536 160.044 453.944C157.164 455.288 154.06 455.96 150.732 455.96ZM148.62 448.664C151.116 448.664 153.42 448.152 155.532 447.128C157.644 446.104 159.468 444.728 161.004 443C162.54 441.272 163.724 439.32 164.556 437.144C165.388 434.904 165.804 432.568 165.804 430.136C165.804 427.704 165.388 425.368 164.556 423.128C163.788 420.824 162.668 418.808 161.196 417.08C159.788 415.352 158.06 413.976 156.012 412.952C154.028 411.864 151.82 411.32 149.388 411.32C147.596 411.32 145.9 411.64 144.3 412.28C142.7 412.92 141.196 413.784 139.788 414.872C138.444 415.896 137.228 417.112 136.14 418.52C135.116 419.928 134.22 421.432 133.452 423.032V437.528C133.772 439.128 134.444 440.6 135.468 441.944C136.556 443.288 137.804 444.472 139.212 445.496C140.684 446.456 142.22 447.224 143.82 447.8C145.484 448.376 147.084 448.664 148.62 448.664ZM260.368 455H251.92V426.968C251.92 421.72 251.056 417.848 249.328 415.352C247.664 412.856 245.168 411.608 241.84 411.608C238.384 411.608 235.28 412.856 232.528 415.352C229.84 417.784 227.92 420.952 226.768 424.856V455H218.32V426.968C218.32 421.592 217.488 417.688 215.824 415.256C214.16 412.824 211.664 411.608 208.336 411.608C204.944 411.608 201.872 412.824 199.12 415.256C196.368 417.624 194.416 420.792 193.264 424.76V455H184.816V404.888H192.496V415.64C194.544 411.928 197.2 409.08 200.464 407.096C203.728 405.048 207.408 404.024 211.504 404.024C215.728 404.024 219.056 405.176 221.488 407.48C223.984 409.72 225.52 412.632 226.096 416.216C230.576 408.088 236.944 404.024 245.2 404.024C248.08 404.024 250.48 404.568 252.4 405.656C254.384 406.68 255.952 408.152 257.104 410.072C258.256 411.928 259.088 414.136 259.6 416.696C260.112 419.256 260.368 422.04 260.368 425.048V455ZM286.368 455.96C284 455.96 281.792 455.576 279.744 454.808C277.696 453.976 275.904 452.856 274.368 451.448C272.896 450.04 271.712 448.408 270.816 446.552C269.984 444.632 269.568 442.552 269.568 440.312C269.568 438.008 270.08 435.928 271.104 434.072C272.128 432.152 273.568 430.52 275.424 429.176C277.344 427.832 279.584 426.776 282.144 426.008C284.768 425.24 287.616 424.856 290.688 424.856C293.12 424.856 295.584 425.08 298.08 425.528C300.576 425.976 302.784 426.584 304.704 427.352V423.32C304.704 419.224 303.552 416.024 301.248 413.72C298.944 411.352 295.68 410.168 291.456 410.168C286.4 410.168 281.088 412.12 275.52 416.024L272.736 410.552C279.2 406.2 285.696 404.024 292.224 404.024C298.816 404.024 303.936 405.784 307.584 409.304C311.296 412.824 313.152 417.784 313.152 424.184V444.632C313.152 446.616 314.048 447.64 315.84 447.704V455C314.944 455.128 314.208 455.224 313.632 455.288C313.056 455.352 312.448 455.384 311.808 455.384C310.144 455.384 308.8 454.904 307.776 453.944C306.816 452.92 306.24 451.704 306.048 450.296L305.856 446.744C303.616 449.752 300.768 452.056 297.312 453.656C293.92 455.192 290.272 455.96 286.368 455.96ZM288.576 449.624C291.584 449.624 294.368 449.08 296.928 447.992C299.552 446.84 301.536 445.336 302.88 443.48C304.096 442.264 304.704 441.016 304.704 439.736V432.344C300.608 430.744 296.352 429.944 291.936 429.944C287.712 429.944 284.256 430.84 281.568 432.632C278.944 434.424 277.632 436.76 277.632 439.64C277.632 441.048 277.888 442.36 278.4 443.576C278.976 444.792 279.744 445.848 280.704 446.744C281.728 447.64 282.912 448.344 284.256 448.856C285.6 449.368 287.04 449.624 288.576 449.624Z" fill="white"/>
</svg>
